<?xml version="1.0" encoding="utf-8"?>
<!-- Generator: Adobe Illustrator 17.0.0, SVG Export Plug-In . SVG Version: 6.00 Build 0)  -->
<!DOCTYPE svg PUBLIC "-//W3C//DTD SVG 1.1//EN" "http://www.w3.org/Graphics/SVG/1.1/DTD/svg11.dtd">
<svg version="1.1" id="Capa_1" xmlns="http://www.w3.org/2000/svg" xmlns:xlink="http://www.w3.org/1999/xlink" x="0px" y="0px"
	 width="64px" height="64px" viewBox="0 0 64 64" enable-background="new 0 0 64 64" xml:space="preserve">
<g>
	<path fill="#494949" d="M51.359,36.476v-9.454c0-0.923-0.438-1.736-1.109-2.269V5.054c0-0.552-0.447-1-1-1h-6
		c-0.459,0-0.858,0.312-0.97,0.757l-2.764,11.054l-2.67-11.046c-0.108-0.449-0.51-0.765-0.972-0.765H12.5c-0.553,0-1,0.448-1,1
		v19.699c-0.67,0.533-1.109,1.346-1.109,2.269v9.454c0,1.607,1.302,2.909,2.909,2.909h5.818c0,0,8.242,2.667,8.242,11.514v9.454
		c0,1.607,1.302,2.909,2.909,2.909h1.212c1.607,0,2.909-1.302,2.909-2.909v-11.2c0.99-7.452,8.121-9.768,8.121-9.768h5.939
		C50.056,39.385,51.359,38.082,51.359,36.476z M13.5,6.054h21.588l3.44,14.235c0.107,0.447,0.508,0.763,0.968,0.765
		c0.001,0,0.003,0,0.004,0c0.459,0,0.858-0.312,0.97-0.757l3.562-14.243h4.219v18.059H13.5V6.054z M30.875,61
		C29.839,61,29,60.161,29,59.125s0.839-1.875,1.875-1.875s1.875,0.839,1.875,1.875S31.911,61,30.875,61z"/>
</g>
</svg>
