<?xml version="1.0" encoding="utf-8"?>
<!-- Generator: Adobe Illustrator 17.0.0, SVG Export Plug-In . SVG Version: 6.00 Build 0)  -->
<!DOCTYPE svg PUBLIC "-//W3C//DTD SVG 1.1//EN" "http://www.w3.org/Graphics/SVG/1.1/DTD/svg11.dtd">
<svg version="1.1" id="Capa_1" xmlns="http://www.w3.org/2000/svg" xmlns:xlink="http://www.w3.org/1999/xlink" x="0px" y="0px"
	 width="64px" height="64px" viewBox="0 0 64 64" enable-background="new 0 0 64 64" xml:space="preserve">
<g>
	<path fill="#339DD1" d="M32.022,13.75c-13.153,0-24.314,5.258-28.314,12.561C1.5,30.5,5.313,37.891,20.25,37.125
		c23.073-1.183-8.375,12.75,14.07,13.565c15.344-0.729,26.555-8.703,26.555-18.44C60.875,22.033,48.534,13.75,32.022,13.75z
		 M14.625,28.25c-2.339,0-5.25,0-5.25-3.25c0-2.622,2.012-4.25,5.25-4.25s5.25,1.628,5.25,4.25
		C19.875,28.25,16.964,28.25,14.625,28.25z M28.625,22.75c-2.623,0-4.75-0.127-4.75-2.75s2.127-3.75,4.75-3.75s4.75,1.127,4.75,3.75
		S31.248,22.75,28.625,22.75z M37.125,45.375c-2.692,0-4.875-1.567-4.875-3.5s2.183-3.5,4.875-3.5S42,39.942,42,41.875
		S39.817,45.375,37.125,45.375z M42.625,25.25c-2.339,0-5.25,0-5.25-3.25c0-2.622,2.012-4.25,5.25-4.25s5.25,1.628,5.25,4.25
		C47.875,25.25,44.964,25.25,42.625,25.25z M57.375,31c0,2.623-2.127,2.75-4.75,2.75s-4.75-0.127-4.75-2.75s2.127-3.75,4.75-3.75
		S57.375,28.377,57.375,31z"/>
	<path fill="#339DD1" d="M42.625,18.75c-1.278,0-4.25,0.317-4.25,3.25c0,2.028,1.361,2.25,4.25,2.25s4.25-0.222,4.25-2.25
		C46.875,19.067,43.903,18.75,42.625,18.75z"/>
	<path fill="#339DD1" d="M14.625,21.75c-1.278,0-4.25,0.317-4.25,3.25c0,2.028,1.361,2.25,4.25,2.25s4.25-0.222,4.25-2.25
		C18.875,22.067,15.903,21.75,14.625,21.75z"/>
</g>
</svg>
