<?xml version="1.0" encoding="utf-8"?>
<!-- Generator: Adobe Illustrator 17.0.0, SVG Export Plug-In . SVG Version: 6.00 Build 0)  -->
<!DOCTYPE svg PUBLIC "-//W3C//DTD SVG 1.1//EN" "http://www.w3.org/Graphics/SVG/1.1/DTD/svg11.dtd">
<svg version="1.1" id="Layer_1" xmlns="http://www.w3.org/2000/svg" xmlns:xlink="http://www.w3.org/1999/xlink" x="0px" y="0px"
	 width="27.982px" height="31.666px" viewBox="0 0 27.982 31.666" enable-background="new 0 0 27.982 31.666" xml:space="preserve">
<g>
	<path fill="#339DD1" d="M12.489,2.554c0.029,0.023,0.055,0.049,0.085,0.074c-0.025-0.026-0.047-0.054-0.071-0.079
		C12.499,2.55,12.494,2.553,12.489,2.554z"/>
	<path fill="#339DD1" d="M26.919,20.505c0.522,0.727,0.664,1.666,0.39,2.577c-0.22,0.733-0.696,1.392-1.341,1.857l-8.016,5.764
		c-0.173,0.124-0.355,0.23-0.543,0.322c0.819,0.003,1.632-0.243,2.325-0.741l7.117-5.119c0.715-0.515,1.244-1.249,1.49-2.066
		c0.317-1.054,0.146-2.149-0.469-3.002L15.044,2.268c-0.519-0.723-1.45-1.156-2.258-1.406L26.919,20.505z"/>
	<path fill="#339DD1" d="M17.79,30.476l8.017-5.764c0.596-0.429,1.035-1.035,1.237-1.709c0.249-0.828,0.122-1.68-0.351-2.336
		L12.358,0.743c-0.072-0.018-0.145-0.037-0.213-0.052c-0.894-0.195-2.647-0.305-3.859,0.565L1.169,6.376
		C0.455,6.891-0.075,7.624-0.32,8.442c-0.279,0.93-0.142,1.689,0.06,2.223l13.935,19.369c0.005,0.008,0.013,0.013,0.018,0.021
		c0.506,0.426,1.165,0.748,2.057,0.823c0.61,0.069,0.772,0.086,0.983,0.111C17.104,30.882,17.462,30.712,17.79,30.476z
		 M1.354,11.556C0.74,10.702,0.568,9.608,0.885,8.554C1.131,7.736,1.66,7.004,2.374,6.491L8.069,2.17
		c1.211-0.871,1.961-0.98,2.855-0.785c0.513,0.125,0.912,0.405,1.187,0.662l0.007-0.004l0.044,0.051
		c0.112,0.109,0.193,0.205,0.254,0.286l0.533,0.607l0.077,0.106c-0.131-0.17-0.28-0.324-0.449-0.464
		c0.044,0.045,0.088,0.087,0.126,0.14l0.326,0.329l4.831,6.696l-0.736,0.532l0.013,0.018l-9.29,6.685l-1.594,1.154L1.354,11.556z"/>
</g>
</svg>
