<?xml version="1.0" encoding="utf-8"?>
<!-- Generator: Adobe Illustrator 17.0.0, SVG Export Plug-In . SVG Version: 6.00 Build 0)  -->
<!DOCTYPE svg PUBLIC "-//W3C//DTD SVG 1.1//EN" "http://www.w3.org/Graphics/SVG/1.1/DTD/svg11.dtd">
<svg version="1.1" id="图层_1" xmlns="http://www.w3.org/2000/svg" xmlns:xlink="http://www.w3.org/1999/xlink" x="0px" y="0px"
	 width="2870px" height="368.609px" viewBox="0 0 2870 368.609" enable-background="new 0 0 2870 368.609" xml:space="preserve">
<g id="图层_4">
	<g>
		<polygon fill="#339DD1" points="1187.303,106.79 1168.558,85.445 1144.397,85.445 1153.353,95.75 1153.353,241.144 
			1171.868,258.611 1172.723,118.383 1187.72,139.176 1203.132,118.383 1202.871,258.611 1222.086,242.144 1222.086,96.302 
			1230.209,85.445 1206.882,85.445 		"/>
		<g>
			<g>
				<path fill="#339DD1" d="M1384.035,153.174h-27.233l-10.503,16.929v74.708h16.024v-39.286h15.825v39.286h16.377v-73.972
					L1384.035,153.174z M1378.147,188.32h-15.825v-17.481h15.825V188.32z"/>
			</g>
		</g>
		<polygon fill="#339DD1" points="1286.884,170.839 1297.557,153.174 1332.887,153.174 1332.887,170.839 1303.261,170.839 
			1303.445,226.962 1319.454,226.962 1319.27,205.525 1307.493,205.525 1318.902,188.32 1336.751,188.32 1336.751,244.811 
			1319.454,258.611 1319.454,244.811 1286.884,244.811 		"/>
		<polygon fill="#339DD1" points="1633.874,159.43 1628.722,153.174 1648.595,153.174 1672.516,184.087 1672.516,153.174 
			1689.077,153.174 1689.077,244.811 1672.884,244.811 1672.884,212.793 1650.803,181.143 1650.987,244.811 1634.242,244.811 		"/>
		<polygon fill="#339DD1" points="1278.077,153.174 1236.675,153.174 1236.675,227.882 1247.347,244.811 1278.077,244.811 
			1278.077,227.146 1252.867,227.146 1253.052,205.893 1267.036,205.893 1278.077,188.32 1256.548,187.584 1253.052,181.511 
			1253.052,170.839 1278.077,170.839 		"/>
		<rect x="1471.833" y="179.579" fill="#339DD1" width="15.5" height="65.231"/>
		<polygon fill="#339DD1" points="1392,85.445 1415.417,85.445 1431.917,188.32 1448.039,85.445 1471.438,85.445 1443.344,244.269 
			1422.64,244.811 		"/>
		<polygon fill="#339DD1" points="1496.905,188.32 1496.905,170.343 1507.572,153.174 1534.239,153.174 1542.572,170.843 
			1542.572,183.343 1528.905,183.343 1528.905,170.843 1513.405,170.843 1513.405,183.218 1542.572,209.664 1542.572,227.641 
			1531.905,244.811 1505.239,244.811 1496.905,227.141 1496.905,214.641 1510.572,214.641 1510.572,227.141 1526.072,227.141 
			1526.072,214.766 		"/>
		<rect x="1471.833" y="153.174" fill="#339DD1" width="15.5" height="15.507"/>
		<rect x="1552" y="179.579" fill="#339DD1" width="15.5" height="65.231"/>
		<rect x="1552" y="153.174" fill="#339DD1" width="15.5" height="15.507"/>
		<g>
			<g>
				<path fill="#339DD1" d="M1613.667,153.174H1587l-10.667,17.169v57L1587,244.811h27l10.833-17.468v-56.5L1613.667,153.174z
					 M1608.333,227.343h-15.5v-56.5h15.5V227.343z"/>
			</g>
		</g>
	</g>
</g>
<g id="图层_6">
</g>
<g id="图层_5">
</g>
<g id="图层_1_1_" display="none">
	<polygon display="inline" fill="#FFFFFF" stroke="#000000" stroke-miterlimit="10" points="1284,148.176 1322,148.176 
		1352.333,186.843 1382.667,148.176 1421,148.176 1352.5,245.843 	"/>
</g>
<g id="图层_3" display="none">
	<polygon display="inline" fill="#FFFFFF" stroke="#000000" stroke-miterlimit="10" points="1297.667,168.843 1327.667,210.436 
		1327.667,367.176 1297.667,330.176 	"/>
	<polygon display="inline" fill="#FFFFFF" stroke="#000000" stroke-miterlimit="10" points="1407.333,168.843 1407.333,329.843 
		1377.667,367.176 1377.667,209.961 	"/>
</g>
<g id="图层_2">
</g>
</svg>
