<?xml version="1.0" encoding="utf-8"?>
<!-- Generator: Adobe Illustrator 17.0.0, SVG Export Plug-In . SVG Version: 6.00 Build 0)  -->
<!DOCTYPE svg PUBLIC "-//W3C//DTD SVG 1.1//EN" "http://www.w3.org/Graphics/SVG/1.1/DTD/svg11.dtd">
<svg version="1.1" id="Capa_1" xmlns="http://www.w3.org/2000/svg" xmlns:xlink="http://www.w3.org/1999/xlink" x="0px" y="0px"
	 width="64px" height="64px" viewBox="0 0 64 64" enable-background="new 0 0 64 64" xml:space="preserve">
<g>
	<path fill="#494949" d="M56.349,26.915l0.657-1.057l-1.172-0.414c-9.22-3.261-17.494-17.43-19.029-20.181
		c0.46-1.012,0.279-1.762,0.018-2.235c-0.847-1.534-3.329-1.653-4.075-1.653c-0.74,0-3.222,0.119-4.069,1.653
		c-0.262,0.474-0.442,1.224,0.018,2.235C27.162,8.015,18.894,22.18,9.668,25.444l-1.174,0.415l0.659,1.057
		c0.054,0.086,5.206,8.495,5.488,18.834H7V62.5h51.5V45.75h-7.64C51.143,35.432,56.295,27.001,56.349,26.915z M16.655,45.75
		c-0.222-8.86-3.77-16.22-5.212-18.86c10.41-4.561,18.906-20.456,19.275-21.154l0.27-0.511L30.68,4.736
		c-0.242-0.384-0.3-0.653-0.251-0.741c0.133-0.24,0.809-0.471,1.571-0.57v25.292c-1.618,0.345-2.833,1.78-2.833,3.502
		c0,1.979,1.604,3.583,3.583,3.583s3.583-1.604,3.583-3.583c0-1.721-1.215-3.157-2.833-3.502V3.425
		c0.761,0.098,1.438,0.329,1.571,0.57c0.048,0.088-0.01,0.357-0.251,0.741l-0.307,0.488l0.27,0.511
		c0.369,0.698,8.865,16.594,19.275,21.154c-1.442,2.64-4.99,10-5.212,18.86L16.655,45.75L16.655,45.75z"/>
</g>
</svg>
