<?xml version="1.0" encoding="utf-8"?>
<!-- Generator: Adobe Illustrator 17.0.0, SVG Export Plug-In . SVG Version: 6.00 Build 0)  -->
<!DOCTYPE svg PUBLIC "-//W3C//DTD SVG 1.1//EN" "http://www.w3.org/Graphics/SVG/1.1/DTD/svg11.dtd">
<svg version="1.1" id="Layer_1" xmlns="http://www.w3.org/2000/svg" xmlns:xlink="http://www.w3.org/1999/xlink" x="0px" y="0px"
	 width="96px" height="96px" viewBox="0 0 96 96" enable-background="new 0 0 96 96" xml:space="preserve">
<path fill="#339DD1" d="M72.448,90.94c5.196,5.153,13.588,5.122,18.746-0.074c5.155-5.194,5.125-13.588-0.071-18.744l-9.448-9.375
	c-0.067-0.068-0.14-0.122-0.208-0.186l6.469-6.519L73.926,42.134l-7.662,7.721L27.437,11.321C26.018,9.915,8.742-3.331,2.557,2.901
	c-6.184,6.231,7.193,23.408,8.611,24.817l38.826,38.532l-7.276,7.333l14.011,13.905l6.084-6.13c0.064,0.067,0.122,0.141,0.189,0.208
	L72.448,90.94z M15.793,23.052c-3.061-3.035-8.117-12.082-8.348-15.301c3.219,0.207,12.303,5.194,15.363,8.233l38.829,38.532
	l-7.016,7.073L15.793,23.052z"/>
</svg>
